<svg preserveAspectRatio="none" overflow="visible" style="display: block;" width="22" height="21.1556" viewBox="0 0 22 21.1556" fill="none" xmlns="http://www.w3.org/2000/svg">
<path id="Vector" d="M21.8753 19.8683C20.266 17.0861 17.786 15.0911 14.8917 14.1454C16.3233 13.2931 17.4356 11.9945 18.0577 10.4489C18.6799 8.90335 18.7774 7.19628 18.3355 5.58988C17.8935 3.98348 16.9365 2.56657 15.6113 1.55674C14.2861 0.546909 12.6661 0 11 0C9.33391 0 7.71389 0.546909 6.38871 1.55674C5.06353 2.56657 4.10647 3.98348 3.66452 5.58988C3.22256 7.19628 3.32013 8.90335 3.94226 10.4489C4.56438 11.9945 5.67666 13.2931 7.10827 14.1454C4.21405 15.09 1.73404 17.085 0.124726 19.8683C0.0657095 19.9645 0.0265643 20.0716 0.00960006 20.1832C-0.00736422 20.2948 -0.00180403 20.4087 0.0259526 20.5181C0.0537092 20.6275 0.1031 20.7303 0.171211 20.8203C0.239322 20.9103 0.324773 20.9858 0.422522 21.0423C0.520272 21.0987 0.628341 21.135 0.740352 21.1491C0.852362 21.1631 0.966047 21.1545 1.0747 21.1239C1.18335 21.0933 1.28476 21.0412 1.37296 20.9707C1.46116 20.9003 1.53435 20.8129 1.58822 20.7137C3.57899 17.2731 7.09771 15.219 11 15.219C14.9023 15.219 18.421 17.2731 20.4118 20.7137C20.4657 20.8129 20.5388 20.9003 20.627 20.9707C20.7152 21.0412 20.8167 21.0933 20.9253 21.1239C21.034 21.1545 21.1476 21.1631 21.2596 21.1491C21.3717 21.135 21.4797 21.0987 21.5775 21.0423C21.6752 20.9858 21.7607 20.9103 21.8288 20.8203C21.8969 20.7303 21.9463 20.6275 21.974 20.5181C22.0018 20.4087 22.0074 20.2948 21.9904 20.1832C21.9734 20.0716 21.9343 19.9645 21.8753 19.8683ZM5.08263 7.61092C5.08263 6.44057 5.42968 5.29651 6.07989 4.32341C6.7301 3.3503 7.65426 2.59185 8.73552 2.14398C9.81678 1.69611 11.0066 1.57893 12.1544 1.80725C13.3023 2.03557 14.3567 2.59915 15.1842 3.42671C16.0118 4.25427 16.5753 5.30864 16.8037 6.4565C17.032 7.60435 16.9148 8.79414 16.4669 9.8754C16.0191 10.9567 15.2606 11.8808 14.2875 12.531C13.3144 13.1812 12.1703 13.5283 11 13.5283C9.43113 13.5266 7.927 12.9026 6.81764 11.7933C5.70829 10.6839 5.08431 9.17979 5.08263 7.61092Z" fill="black"/>
</svg>
