<svg width="250" height="80" viewBox="0 0 250 80" fill="none" xmlns="http://www.w3.org/2000/svg">
<g clip-path="url(#clip0_101_46)">
<path d="M7.66 10.672H31.468V17.392H22.876V46H15.916V17.392H7.66V10.672ZM62.7708 25.024L63.2988 28.72L63.2028 28.432C64.0348 27.024 65.0748 25.936 66.3228 25.168C67.5708 24.368 69.0748 23.968 70.8348 23.968C71.9868 23.968 72.9948 24.128 73.8588 24.448C74.7548 24.768 75.5068 25.248 76.1148 25.888C76.7228 26.496 77.1388 27.296 77.3628 28.288L77.1228 28.336C78.0188 27.024 79.0908 25.968 80.3387 25.168C81.6188 24.368 82.9468 23.968 84.3228 23.968C86.4028 23.968 88.0508 24.56 89.2668 25.744C90.5148 26.896 91.1548 28.4 91.1868 30.256V46H84.5148V33.04C84.4828 32.112 84.3388 31.36 84.0828 30.784C83.8268 30.176 83.2348 29.84 82.3068 29.776C81.2188 29.776 80.2908 30.16 79.5228 30.928C78.7868 31.664 78.2268 32.624 77.8428 33.808C77.4908 34.96 77.3148 36.16 77.3148 37.408V46H70.5948V33.04C70.5628 32.112 70.3868 31.36 70.0668 30.784C69.7788 30.176 69.1708 29.84 68.2428 29.776C67.1868 29.776 66.2908 30.16 65.5547 30.928C64.8508 31.664 64.3068 32.608 63.9228 33.76C63.5708 34.912 63.3948 36.096 63.3948 37.312V46H56.6748V25.024H62.7708ZM106.932 46.576C104.372 46.576 102.196 46.096 100.404 45.136C98.6443 44.176 97.3003 42.848 96.3723 41.152C95.4443 39.456 94.9803 37.504 94.9803 35.296C94.9803 33.184 95.5243 31.28 96.6123 29.584C97.7003 27.888 99.1563 26.544 100.98 25.552C102.804 24.528 104.836 24.016 107.076 24.016C110.084 24.016 112.548 24.896 114.468 26.656C116.42 28.384 117.684 30.896 118.26 34.192L101.94 39.376L100.452 35.728L112.26 31.744L110.868 32.368C110.612 31.536 110.148 30.816 109.476 30.208C108.836 29.568 107.86 29.248 106.548 29.248C105.556 29.248 104.676 29.488 103.908 29.968C103.172 30.416 102.596 31.072 102.18 31.936C101.796 32.768 101.604 33.76 101.604 34.912C101.604 36.224 101.844 37.328 102.324 38.224C102.804 39.088 103.46 39.744 104.292 40.192C105.124 40.64 106.052 40.864 107.076 40.864C107.812 40.864 108.516 40.736 109.188 40.48C109.892 40.224 110.58 39.888 111.252 39.472L114.228 44.464C113.108 45.104 111.892 45.616 110.58 46C109.3 46.384 108.084 46.576 106.932 46.576Z" fill="#0A396E"/>
<path d="M29.1209 35.248C29.1209 33.104 29.6169 31.184 30.6089 29.488C31.6329 27.792 33.0569 26.464 34.8809 25.504C36.7049 24.512 38.8009 24.016 41.1689 24.016C43.5689 24.016 45.6489 24.512 47.4089 25.504C49.1689 26.464 50.5129 27.792 51.4409 29.488C52.4009 31.184 52.8809 33.104 52.8809 35.248C52.8809 37.392 52.4009 39.328 51.4409 41.056C50.5129 42.752 49.1689 44.096 47.4089 45.088C45.6489 46.08 43.5369 46.576 41.0729 46.576C38.7689 46.576 36.7049 46.128 34.8809 45.232C33.0889 44.336 31.6809 43.04 30.6569 41.344C29.6329 39.648 29.1209 37.616 29.1209 35.248ZM35.8889 35.296C35.8889 36.384 36.1129 37.376 36.5609 38.272C37.0089 39.136 37.6169 39.824 38.3849 40.336C39.1529 40.848 40.0169 41.104 40.9769 41.104C42.0329 41.104 42.9449 40.848 43.7129 40.336C44.4809 39.824 45.0729 39.136 45.4889 38.272C45.9049 37.376 46.1129 36.384 46.1129 35.296C46.1129 34.176 45.9049 33.184 45.4889 32.32C45.0729 31.456 44.4809 30.768 43.7129 30.256C42.9449 29.744 42.0329 29.488 40.9769 29.488C40.0169 29.488 39.1529 29.744 38.3849 30.256C37.6169 30.768 37.0089 31.456 36.5609 32.32C36.1129 33.184 35.8889 34.176 35.8889 35.296Z" fill="#0A396E"/>
<path d="M120.348 10.672H144.156V17.392H135.564V46H128.604V17.392H120.348V10.672ZM151.457 25.024L152.081 30.784L151.937 29.92C152.545 28.672 153.377 27.616 154.433 26.752C155.489 25.856 156.529 25.168 157.553 24.688C158.609 24.208 159.409 23.968 159.953 23.968L159.617 30.688C158.049 30.496 156.705 30.752 155.585 31.456C154.465 32.16 153.601 33.088 152.993 34.24C152.385 35.392 152.081 36.576 152.081 37.792V46H145.409V25.024H151.457ZM161.027 35.248C161.027 33.104 161.523 31.184 162.515 29.488C163.539 27.792 164.963 26.464 166.787 25.504C168.611 24.512 170.707 24.016 173.075 24.016C175.475 24.016 177.555 24.512 179.315 25.504C181.075 26.464 182.419 27.792 183.347 29.488C184.307 31.184 184.787 33.104 184.787 35.248C184.787 37.392 184.307 39.328 183.347 41.056C182.419 42.752 181.075 44.096 179.315 45.088C177.555 46.08 175.443 46.576 172.979 46.576C170.675 46.576 168.611 46.128 166.787 45.232C164.995 44.336 163.587 43.04 162.563 41.344C161.539 39.648 161.027 37.616 161.027 35.248ZM167.795 35.296C167.795 36.384 168.019 37.376 168.467 38.272C168.915 39.136 169.523 39.824 170.291 40.336C171.059 40.848 171.923 41.104 172.883 41.104C173.939 41.104 174.851 40.848 175.619 40.336C176.387 39.824 176.979 39.136 177.395 38.272C177.811 37.376 178.019 36.384 178.019 35.296C178.019 34.176 177.811 33.184 177.395 32.32C176.979 31.456 176.387 30.768 175.619 30.256C174.851 29.744 173.939 29.488 172.883 29.488C171.923 29.488 171.059 29.744 170.291 30.256C169.523 30.768 168.915 31.456 168.467 32.32C168.019 33.184 167.795 34.176 167.795 35.296ZM197.478 46.432L184.902 25.024H192.87L200.022 39.52L195.894 39.376L202.086 25.024H209.574L197.67 46.432H197.478ZM221.635 46.576C219.075 46.576 216.899 46.096 215.107 45.136C213.347 44.176 212.003 42.848 211.075 41.152C210.147 39.456 209.683 37.504 209.683 35.296C209.683 33.184 210.227 31.28 211.315 29.584C212.403 27.888 213.859 26.544 215.683 25.552C217.507 24.528 219.539 24.016 221.779 24.016C224.787 24.016 227.251 24.896 229.171 26.656C231.123 28.384 232.387 30.896 232.963 34.192L216.643 39.376L215.155 35.728L226.963 31.744L225.571 32.368C225.315 31.536 224.851 30.816 224.179 30.208C223.539 29.568 222.563 29.248 221.251 29.248C220.259 29.248 219.379 29.488 218.611 29.968C217.875 30.416 217.299 31.072 216.883 31.936C216.499 32.768 216.307 33.76 216.307 34.912C216.307 36.224 216.547 37.328 217.027 38.224C217.507 39.088 218.163 39.744 218.995 40.192C219.827 40.64 220.755 40.864 221.779 40.864C222.515 40.864 223.219 40.736 223.891 40.48C224.595 40.224 225.283 39.888 225.955 39.472L228.931 44.464C227.811 45.104 226.595 45.616 225.283 46C224.003 46.384 222.787 46.576 221.635 46.576Z" fill="#3BCB83"/>
</g>
<path d="M16.139 62.438C17.4852 61.8843 19.1184 61.6206 20.3421 61.5067C20.7181 61.4729 20.5676 61.6925 20.834 61.6773C21.3748 61.6443 21.7997 61.4726 22.3209 61.4665C22.4858 61.467 22.3384 61.7917 22.5103 61.7856C23.4847 61.7448 24.3516 61.5277 25.3001 61.4447C30.0092 61.0381 34.5625 60.6298 39.2705 60.2733C40.8103 60.1578 42.7001 60.2392 44.3176 59.9693C44.4978 59.9383 44.3654 59.6918 44.3979 59.6673C44.9117 59.292 44.7796 59.8275 45.1448 59.8628C46.6267 59.9987 48.1921 59.8816 49.6068 59.6581C50.18 59.5648 49.5557 59.1049 50.1644 59.3407C50.2068 59.3565 50.0829 59.6422 50.2449 59.6575C50.6114 59.6916 51.3037 59.5831 51.5943 59.5802C51.9885 59.5773 52.152 59.5711 52.4006 59.5531C52.409 59.5521 52.4345 59.5509 52.4429 59.5501C52.5415 59.5459 52.6544 59.5401 52.8044 59.5327C53.5003 59.501 54.3538 59.591 55.1319 59.4873C55.29 59.4647 55.0645 59.1956 55.3157 59.1343C55.5663 59.0731 56.2473 59.0609 56.4831 59.1149C56.7181 59.1688 56.6312 59.3944 56.6748 59.4428C57.0333 59.8515 57.8089 59.219 57.9138 59.199C59.7309 58.8555 61.371 59.1105 63.114 59.024C64.4675 58.9561 65.834 58.779 67.1288 58.733C68.603 58.6825 69.9315 58.7731 71.3665 58.6812C71.5197 58.6718 71.3248 58.3502 71.5121 58.3379C73.5195 58.2078 75.492 58.1557 77.5107 58.2906C77.7097 58.3045 77.4671 58.6053 77.6667 58.6366C78.8815 58.8218 80.8737 59.3091 81.5278 58.0182C82.3529 58.0325 83.3622 58.0409 84.1196 58.264C84.6065 58.4075 84.1578 58.7423 84.7346 58.5834C84.8648 58.5479 84.6824 58.2787 84.8785 58.2465C85.7045 58.1108 86.6208 58.163 87.4458 57.9863C87.6136 57.9497 87.5574 57.704 87.6035 57.6575C87.9947 57.2798 88.6791 57.85 88.8261 57.8875C89.9412 58.1663 90.7455 58.0066 91.7828 57.9734C92.0222 57.9659 91.7268 57.6444 91.9555 57.6253C93.1406 57.5306 94.379 57.5107 95.5598 57.6129C95.8211 57.6364 95.5933 57.929 95.7183 57.9548C96.2687 58.065 96.3693 57.5252 96.8981 57.6207C97.0097 57.6402 96.9566 57.8851 96.9778 57.911C97.3096 58.317 97.5617 57.714 97.6426 57.6978C98.6642 57.4799 99.3525 58.0733 100.338 57.9486C100.456 57.9331 100.177 57.6362 100.51 57.6113C102.734 57.4431 105.09 57.4414 107.307 57.608C107.651 57.6336 107.415 57.8729 107.437 57.9005C107.804 58.3321 108.01 57.729 108.121 57.7026C108.996 57.51 109.837 57.9801 110.412 57.2504C114.155 57.366 117.857 56.8436 121.583 57.3602C121.63 57.366 121.555 57.6618 121.649 57.6722C122.785 57.8008 122.551 57.3523 123.284 56.7715C123.469 56.6256 124.064 57.2803 124.116 57.328C124.307 57.5039 124.129 57.946 124.192 57.9792C124.713 58.2395 124.585 56.8 125.275 56.7782C125.297 56.7799 125.215 57.0482 125.273 57.0728C125.456 57.1501 125.631 57.0391 125.81 57.125C126.22 57.3241 126.382 58.0205 126.988 57.5938C127.065 57.5385 126.921 56.7241 127.54 56.744C127.788 56.7526 128.877 56.7058 129.183 56.7498C129.489 56.7937 129.288 57.0636 129.31 57.0743C130.14 57.3986 129.833 57.5523 130.258 58.0563C130.683 58.5584 130.534 57.3354 130.698 57.1936C130.863 57.0522 131.475 57.3222 131.626 57.4179C131.777 57.5136 131.598 57.6865 131.731 57.7393C132.614 58.0839 132.096 57.1195 132.378 56.9166C133.042 56.4363 133.595 57.3307 134.214 57.4025C134.382 57.4218 134.239 57.2185 134.389 57.195C134.982 57.1043 135.347 57.3781 136.013 57.0993C136.122 57.0538 136.652 56.4921 137.014 56.8838C137.065 56.9403 136.93 57.1708 137.183 57.2147C137.56 57.2807 138.236 57.312 138.644 57.2254C138.942 57.1613 138.588 56.797 138.969 56.903C139.139 56.9503 138.833 57.177 139.151 57.2478C139.467 57.3185 140.266 57.2879 140.569 57.2725C140.871 57.257 140.698 56.978 140.722 56.9583C140.867 56.8451 141.444 56.6935 141.495 56.6926C144.099 56.5913 146.512 57.0107 149.02 56.7958C149.219 56.7794 149.08 56.4836 149.11 56.478C149.793 56.3374 149.27 57.1439 149.754 57.399C149.672 56.7943 149.957 56.8978 150.435 56.8208C150.666 56.7832 150.535 56.5512 150.555 56.5267C150.89 56.1626 151.137 56.618 151.201 56.7109C151.434 57.0526 151.671 56.6379 151.829 56.8663C151.987 57.0929 151.642 57.4412 152.097 57.4272C152.22 57.2075 151.871 56.6475 152.214 56.5483C153.537 56.1722 155.966 56.5693 157.049 56.5958C158.11 56.6224 158.446 56.5766 159.056 56.6444C160.165 56.7671 159.759 56.3532 160.448 56.149C161.14 55.945 160.818 56.986 160.922 57.207C161.023 57.4279 161.126 57.1971 161.249 57.3175C161.372 57.4378 161.113 57.5933 161.397 57.6347C161.683 57.676 162.447 57.2683 162.542 57.0341C162.747 56.5379 162.384 56.0256 163.151 56.1961C163.195 56.2063 163.056 56.4806 163.225 56.5057C164.091 56.629 164.967 56.6703 165.822 56.7307C166.303 56.7632 166.777 56.8013 167.24 56.8611C167.422 56.8849 167.263 57.1897 167.369 57.207C168.464 57.3885 168.067 56.8822 168.654 56.3086C168.529 57.0651 168.859 57.5234 169.704 57.52C170.208 57.5183 170.118 57.1893 170.439 56.9541C170.536 56.8832 170.89 57.1067 170.952 56.9511C171.157 56.4425 170.825 55.8774 171.673 56.097C171.71 56.1075 171.594 56.3859 171.722 56.4017C172.574 56.5057 172.676 55.9747 173.583 55.9054C174.279 55.851 175.573 56.1691 176.378 56.2201C176.365 57.069 177.115 56.8731 177.429 56.2875C177.966 56.3109 178.538 56.2778 179.044 56.3592C179.218 56.3869 179.103 56.6326 179.125 56.6592C179.46 57.0761 179.686 56.5071 179.798 56.485C181.061 56.2706 182.011 56.7063 183.222 56.2924C183.264 56.2775 183.337 55.6882 183.648 56.1211C183.668 56.1509 183.279 56.4163 183.831 56.4412C184.374 56.466 185.426 56.7916 186.195 56.5273C186.383 56.4636 186.846 55.9904 187.223 56.3694C187.274 56.4209 187.216 56.5893 187.288 56.6843C187.522 56.9874 187.66 56.3932 187.93 56.9034C188.204 57.4138 188.754 57.801 189.539 57.4653C189.564 57.4555 189.759 56.9864 190.003 56.9984C190.395 57.0178 190.941 57.1269 191.339 57.1322C191.535 57.1347 191.415 56.8388 191.45 56.8341C192.778 56.6982 193.694 56.9823 195.085 57.136C195.326 57.1643 196.102 56.7877 196.581 57.12C197.115 57.4844 196.491 58.9033 197.767 58.605C198.281 58.4863 198.972 56.6835 199.856 57.6677C201.622 57.507 203.225 58.0707 205.009 57.8383C205.089 57.8281 205.368 57.3336 205.551 57.3516C205.826 57.3793 205.97 57.6269 206.166 57.6548C206.986 57.7776 207.768 57.6251 208.554 57.7124C208.857 57.7455 208.735 57.9837 209.097 58.0237C209.46 58.0638 209.717 57.7574 210.197 57.9513C210.562 58.0992 210.878 58.7893 211.355 58.9058C211.427 58.2553 211.768 58.2962 212.378 58.1747C212.495 58.1511 212.392 57.9137 212.449 57.8908C212.678 57.7926 212.867 57.9984 213.091 57.8898C213.145 57.8637 213.167 57.6414 213.212 57.6075C213.601 57.3113 214.133 57.8644 214.23 57.9613C214.588 58.328 214.795 58.0556 215.077 58.2138C215.358 58.372 214.904 58.4931 215.239 58.6048C215.941 58.8368 216.858 58.8922 217.58 58.9776C217.867 59.0102 217.702 58.6932 217.744 58.6909C218.353 58.6782 218.919 59.058 219.316 58.5036C219.566 60.0759 219.693 58.3943 220.514 58.7948C220.579 58.827 220.584 59.5584 220.314 59.6357C220.044 59.7128 219.68 59.4442 219.303 59.5705C219.213 59.5999 218.655 60.2244 218.585 60.2585C218.035 60.5238 218.074 59.4368 218.053 59.3745C217.805 58.7013 217.141 59.37 216.978 59.4045C216.236 59.5623 215.65 59.3514 215.035 59.4591C214.636 59.5288 214.531 60.2332 214.226 60.183C213.219 60.0182 212.938 58.9978 211.913 59.7742C211.692 59.9399 211.833 60.7308 211.143 60.0613C211.102 60.0192 210.603 59.4183 210.256 59.7462C210.212 59.7875 210.196 60.0135 210.142 60.0283C209.774 60.1235 209.565 59.9267 209.175 59.9846C208.786 60.0426 208.313 60.138 207.887 60.0317C207.629 59.9679 207.316 59.5241 207.195 59.4126C206.854 59.0918 206.451 59.555 206.25 59.1814C206.049 58.806 206.523 58.2842 205.947 58.0141C205.889 58.6001 205.802 59.1999 205.731 59.7884C204.462 59.6904 203.208 59.4319 201.923 59.396C201.764 59.3922 201.911 59.7159 201.741 59.72C201.019 59.736 200.398 59.4827 199.65 59.5415C199.058 59.5878 198.425 59.8984 197.814 59.9607C197.461 59.2738 196.567 59.4716 195.912 59.3898C195.683 59.3613 195.703 59.182 195.54 59.1184C194.926 58.8828 195.203 59.4865 195.032 59.5751C194.307 59.954 194.285 58.6059 193.418 58.6168C193.37 58.6167 192.812 59.321 192.734 59.364C192.248 59.644 192.661 59.1123 192.361 59.0522C191.814 58.9426 191.414 58.7624 190.778 58.96C190.59 59.0185 190.131 59.4572 189.766 59.1046C189.718 59.0584 189.75 58.8216 189.711 58.807C188.996 58.5629 188.981 59.3086 188.577 59.5547C188.176 59.8008 187.559 59.2774 187.432 59.1273C187.103 58.7391 187.691 58.9668 187.709 58.9295C187.927 58.4844 187.471 58.555 187.118 58.5126C187.072 57.7808 186.6 57.8188 186.763 58.4717C186.783 58.5431 187.044 58.4782 187.118 58.5126C186.804 59.2258 186.286 59.3112 185.703 58.6347C185.429 58.3178 185.698 57.9539 184.848 58.0798C184.467 58.1368 184.612 58.6415 184.28 58.7759C183.532 59.0827 182.497 58.6064 181.736 58.6771C181.452 58.7027 181.728 58.9794 181.533 59.0064C181.018 59.079 180.558 58.8708 180.028 58.9755C179.98 58.9853 180.097 59.274 179.932 59.2773C178.736 59.3084 177.611 59.1238 176.363 59.1215C175.755 59.1204 174.608 59.2837 173.991 59.255C172.893 59.2066 171.492 58.797 170.559 58.9069C169.94 58.9775 170.078 59.2649 169.813 59.4639C169.295 59.8495 168.382 59.1764 168.263 59.072C168.26 59.0685 168.785 58.9951 168.503 58.8499C168.337 58.543 168.269 59.0706 168.263 59.072C168.185 59.0044 167.122 58.9508 166.908 59.0086C166.792 59.0401 166.86 59.3126 166.8 59.3239C166.488 59.3809 166.173 59.4297 165.857 59.4701C164.764 59.6149 163.632 59.6514 162.492 59.5687C162.467 59.5636 162.5 59.2573 162.441 59.2491C161.612 59.1258 161.081 59.5084 160.39 59.7419C159.696 59.9754 159.147 59.9106 158.735 59.3929C158.219 59.468 157.467 59.2496 157.031 59.1169C156.595 58.9842 156.545 59.5805 156.507 59.5929C155.328 59.992 154.658 59.6645 153.421 59.6367C152.826 59.6227 151.688 59.733 151.058 59.8118C150.561 59.8751 150.256 59.7423 149.796 59.8417C149.734 59.855 149.803 60.1185 149.784 60.1292C149.275 60.4577 149.508 59.8045 149.399 59.6912C148.998 59.2793 148.767 59.0604 148.116 59.2733C147.966 59.3221 147.548 60.2648 147.273 60.3258C146.915 60.4034 147.043 60.066 146.668 60.1558C146.636 60.1632 146.648 60.3692 146.415 60.3657C145.321 60.3521 144.17 60.2602 143.044 60.3091C142.89 60.315 143.095 60.6371 142.874 60.651C141.827 60.7161 140.708 60.7329 139.691 60.6065C139.441 60.5743 139.591 60.3412 139.535 60.2747C139.193 59.872 138.737 60.4823 138.66 60.4958C136.823 60.8324 135.388 60.3306 133.515 60.6416C133.413 60.6596 132.644 61.3228 132.276 60.7835C132.251 60.7476 131.886 60.1954 131.588 60.5888C131.57 60.6134 131.796 60.8965 131.415 60.8781C131.034 60.8597 130.428 61.0709 129.901 60.7682C129.733 60.6729 129.328 60.1235 128.85 60.5853C128.819 60.6175 128.09 61.6511 127.797 60.9619C127.75 60.8484 127.774 60.1089 127.197 60.5052C127.087 60.582 127.296 60.7404 127.003 60.8522C126.553 61.0245 125.951 60.845 125.405 61.191C125.309 61.2522 124.912 61.7659 124.569 61.396C124.515 61.3381 124.606 61.0886 124.43 61.0665C123.594 60.9602 122.725 61.1526 121.877 61.009C121.576 60.9587 121.716 60.5555 121.401 60.4587C121.086 60.362 120.454 60.2796 120.133 60.4722C119.812 60.6649 120.19 61.2881 119.702 61.3548C117.582 61.6445 115.464 61.3424 113.339 61.3606C113.024 61.3632 113.292 61.5814 112.829 61.6016C111.119 61.677 108.172 61.9939 106.67 61.5649C105.466 61.2212 106.954 60.8729 106.038 60.7484C105.596 60.6892 105.148 61.4444 105.043 61.4714C104.018 61.745 103.29 61.4444 102.36 61.5793C102.168 61.6072 102.368 61.8993 102.204 61.9198C101.647 61.9924 101.055 61.8807 100.523 61.9251C100.284 61.9457 100.337 62.1725 100.116 62.1631C99.5906 62.1433 99.1163 62.065 98.5934 61.8705C98.5457 61.8528 98.8516 61.5566 98.4601 61.5609C97.8267 61.5686 97.0348 61.3874 96.319 61.6334C96.1063 61.7073 96.1199 62.2296 95.6418 61.887C95.5413 61.8155 95.6413 61.1838 95.1203 61.7465C95.0324 61.84 94.1519 62.606 93.6891 62.1526C93.5669 62.0332 93.2474 61.532 92.992 61.6228C92.9575 61.6371 93.1089 61.9119 92.8958 61.9477C92.148 62.0689 91.3468 62.0707 90.5715 62.1897C90.3645 62.2221 90.6858 62.4998 90.377 62.5388C89.5245 62.6464 88.4775 62.6148 87.6293 62.5584C87.3196 62.537 87.5229 62.288 87.4994 62.2627C87.1213 61.8521 86.9322 62.435 86.8142 62.4734C86.0802 62.7044 85.5064 62.4579 84.831 62.5575C84.6447 62.5843 84.7888 62.8525 84.7525 62.8785C84.3745 63.1332 84.6432 62.6294 84.3933 62.5856C83.6911 62.4611 82.9204 62.5156 82.2262 62.58C81.9712 62.6041 82.2718 62.9094 82.0429 62.9273C80.7049 63.0389 79.2524 63.0709 77.9336 62.9532C77.684 62.9305 77.8294 62.6792 77.7753 62.6257C77.4071 62.2504 76.8911 62.8069 76.7732 62.8629C76.2288 63.1191 76.0048 62.9124 75.5203 62.9743C73.1691 63.2798 70.2052 63.2718 67.967 63.2888C65.0255 63.3136 62.7609 63.1909 59.9696 63.3927C59.792 63.4052 59.9877 63.7212 59.8349 63.7362C57.886 63.9138 55.9512 63.8876 53.9528 64.0905C53.7917 64.1065 54.0411 64.4019 53.7834 64.4378C53.4577 64.4846 53.0805 64.51 52.7175 64.5063L52.8172 64.4993C52.58 64.5045 52.348 64.4983 52.1364 64.4784C51.8671 64.4537 52.2003 64.1596 51.9299 64.1401C51.3008 64.094 50.6451 64.1285 50.0346 64.2315C49.7719 64.2763 50.2043 64.5553 49.8512 64.5898C47.4485 64.832 45.1665 65.0963 42.7169 64.9255C42.5508 64.9136 42.3591 64.2879 42.0078 64.4463C41.9984 64.6261 42.0206 64.8343 42.0276 65.0248C38.5721 65.4714 35.1777 65.6132 31.7201 66.0114C31.5744 66.0283 31.8676 66.3339 31.5868 66.3683C29.9719 66.5673 28.4304 66.8697 26.7358 66.7818C26.5701 66.7734 26.575 66.1675 26.0932 66.3327C26.0016 66.363 25.3144 66.5513 25.1413 66.7113C25.1187 66.7348 25.2971 66.9885 25.0614 67.0349C23.7317 67.2937 22.3206 67.4803 20.9977 67.5899C20.7875 67.6066 20.942 67.2692 20.792 67.2786C19.7122 67.3521 18.6307 67.854 17.7233 67.9014C17.1363 67.9348 17.1403 67.3817 16.6369 67.059C16.562 67.0115 16.2771 67.1665 16.1051 66.9361C15.6091 66.3801 15.3652 65.5638 14.8283 64.9758C14.7718 64.9113 14.5466 65.0677 14.3491 65.2152C14.1501 65.3691 13.9848 65.454 14.17 64.9876C14.1891 64.95 14.3654 64.7426 14.5262 64.5684C14.7014 64.3815 14.8434 64.2243 14.8941 64.117C14.9579 63.9732 14.6229 63.8127 14.7806 63.5897C14.948 63.3647 15.2774 63.4865 15.5387 63.2232C15.7871 62.9681 15.5454 62.6884 16.139 62.438ZM155.081 58.5248C154.678 58.2469 154.64 59.2947 155.064 59.0358C155.085 59.022 155.101 58.5384 155.081 58.5248ZM203.258 58.6464C202.763 58.1582 202.366 58.8185 202.719 59.1932C203.069 59.5676 203.408 58.7945 203.258 58.6464ZM208.654 58.6408C208.075 58.2349 207.88 59.7095 208.543 59.4553C208.582 59.4411 208.688 58.6645 208.654 58.6408ZM18.1003 66.3615C18.0958 66.3477 17.7907 66.4276 17.7891 66.4433C17.7356 66.808 18.324 66.6538 18.1003 66.3615ZM214.02 58.7092C213.852 58.4919 213.287 58.6742 213.5 58.9439C213.67 59.1606 214.233 58.9795 214.02 58.7092ZM134.245 57.9128C134.239 57.8974 134.008 57.8898 134.015 57.9778C134.039 58.2613 134.357 58.1721 134.245 57.9128ZM223.084 59.6489C221.754 59.4388 221.078 58.1286 222.523 58.4328C222.784 58.488 221.909 58.7559 222.232 58.9043C222.824 59.1749 223.321 58.4574 223.901 58.9405C224.006 59.0287 223.159 59.6635 223.081 59.6503C223.082 59.6498 223.083 59.6494 223.084 59.6489ZM154.827 57.2722C154.819 57.2585 154.499 57.2517 154.492 57.2656C154.326 57.6013 154.97 57.6151 154.827 57.2722ZM120.736 57.6738C120.717 57.6448 119.973 57.6413 119.95 57.6692C119.58 58.2249 121.084 58.2338 120.736 57.6738ZM176.39 56.2427C176.739 55.9075 177.143 55.8675 177.428 56.2871C177.076 56.2652 176.739 56.2625 176.39 56.2427Z" fill="#F75454"/>
<defs>
<clipPath id="clip0_101_46">
<rect x="5.5" y="10" width="239" height="42" rx="8" fill="white"/>
</clipPath>
</defs>
</svg>
